# Blender v2.80 (sub 37) OBJ File: ''
# www.blender.org
mtllib ColorCube.mtl
o Cube
v 1.000000 1.000000 -1.000000
v 1.000000 -1.000000 -1.000000
v 1.000000 1.000000 1.000000
v 1.000000 -1.000000 1.000000
v -1.000000 1.000000 -1.000000
v -1.000000 -1.000000 -1.000000
v -1.000000 1.000000 1.000000
v -1.000000 -1.000000 1.000000
v -1.000000 -1.000000 -1.000000
v -1.000000 -1.000000 -1.000000
v -1.000000 -1.000000 1.000000
v -1.000000 -1.000000 1.000000
v 1.000000 -1.000000 -1.000000
v 1.000000 -1.000000 -1.000000
v 1.000000 1.000000 -1.000000
v 1.000000 1.000000 -1.000000
v -1.000000 1.000000 1.000000
v -1.000000 1.000000 1.000000
v 1.000000 1.000000 1.000000
v 1.000000 1.000000 1.000000
v 1.000000 -1.000000 1.000000
v 1.000000 -1.000000 1.000000
v -1.000000 1.000000 -1.000000
v -1.000000 1.000000 -1.000000
vt 0.666467 0.333533
vt 0.333533 0.666467
vt 0.333533 0.333533
vt 0.333533 0.666467
vt 0.666467 0.333533
vt 0.666467 0.666467
vt 0.666467 0.666467
vt 0.333533 0.333533
vt 0.666467 0.333533
vt 0.666467 0.333533
vt 0.333533 0.666467
vt 0.333533 0.333533
vt 0.333533 0.666467
vt 0.666467 0.333533
vt 0.666467 0.666467
vt 0.666467 0.666467
vt 0.333533 0.333533
vt 0.666467 0.333533
vt 0.666467 0.666467
vt 0.333533 0.333533
vt 0.333533 0.666467
vt 0.666467 0.666467
vt 0.333533 0.333533
vt 0.333533 0.666467
vn 0.0000 1.0000 0.0000
vn 0.0000 0.0000 1.0000
vn -1.0000 0.0000 0.0000
vn 0.0000 -1.0000 0.0000
vn 1.0000 0.0000 0.0000
vn 0.0000 0.0000 -1.0000
usemtl CubeMat
s off
f 24/1/1 20/2/1 16/3/1
f 19/4/2 12/5/2 21/6/2
f 7/7/3 9/8/3 11/9/3
f 13/10/4 8/11/4 10/12/4
f 15/13/5 4/14/5 14/15/5
f 5/16/6 2/17/6 6/18/6
f 24/1/1 18/19/1 20/2/1
f 19/4/2 17/20/2 12/5/2
f 7/7/3 23/21/3 9/8/3
f 13/10/4 22/22/4 8/11/4
f 15/13/5 3/23/5 4/14/5
f 5/16/6 1/24/6 2/17/6
