# Blender v2.83.3 OBJ File: 'TestShipTris.blend'
# www.blender.org
mtllib TestShip.mtl
o Cube
v 5.000000 6.000002 -9.999999
v 5.000000 -3.999998 -10.000001
v 5.000000 8.999998 10.000002
v 5.000000 -6.000002 9.999999
v -5.000000 6.000002 -9.999999
v -5.000000 -3.999998 -10.000001
v -5.000000 8.999998 10.000002
v -5.000000 -6.000002 9.999999
v 20.000000 6.000002 -9.999999
v 20.000000 -3.999998 -10.000001
v 25.000000 8.999998 10.000002
v 25.000000 -6.000002 9.999999
v -20.000000 -3.999998 -10.000001
v -25.000000 -6.000002 9.999999
v -25.000000 8.999998 10.000002
v -20.000000 6.000002 -9.999999
v 5.000000 -0.999991 -50.000000
v -5.000000 -0.999991 -50.000000
v 5.000000 1.000009 -50.000000
v -5.000000 1.000009 -50.000000
v 10.000000 1.000009 -50.000000
v 10.000000 -0.999991 -50.000000
v -10.000000 1.000009 -50.000000
v -10.000000 -0.999991 -50.000000
v 5.000000 1.000010 -60.000000
v 5.000000 -0.999990 -60.000000
v -5.000000 1.000010 -60.000000
v -5.000000 -0.999990 -60.000000
v 7.000000 1.000010 -60.000000
v 7.000000 -0.999990 -60.000000
v -7.000000 1.000010 -60.000000
v -7.000000 -0.999990 -60.000000
v -5.000000 -6.000004 24.999998
v -5.000000 9.999995 25.000002
v 5.000000 9.999995 25.000002
v 5.000000 -6.000004 24.999998
v 25.000000 8.999995 25.000002
v 25.000000 -6.000004 24.999998
v -25.000000 -6.000004 24.999998
v -25.000000 8.999995 25.000002
v -5.000000 -6.000006 35.000000
v -5.000000 9.999994 35.000000
v 5.000000 9.999994 35.000000
v 5.000000 -6.000006 35.000000
v 25.000000 8.999994 35.000000
v 25.000000 -6.000006 35.000000
v -25.000000 -6.000006 35.000000
v -25.000000 8.999994 35.000000
v -7.500000 -3.500009 50.000000
v -7.500000 6.499991 50.000000
v 7.500000 6.499991 50.000000
v 7.500000 -3.500009 50.000000
v 17.500000 6.499991 50.000000
v 17.500000 -3.500009 50.000000
v -17.500000 -3.500009 50.000000
v -17.500000 6.499991 50.000000
v 5.000000 13.999994 35.000004
v 5.000000 13.999995 25.000002
v -5.000000 13.999995 25.000002
v -5.000000 13.999994 35.000004
v 5.000000 23.999994 35.000004
v 5.000000 23.999996 25.000004
v -5.000000 23.999996 25.000004
v -5.000000 23.999994 35.000004
v -20.000000 13.999995 25.000002
v -20.000000 13.999994 35.000004
v -20.000000 23.999996 25.000004
v -20.000000 23.999994 35.000004
v 20.000000 13.999994 35.000004
v 20.000000 13.999995 25.000002
v 20.000000 23.999994 35.000004
v 20.000000 23.999996 25.000004
v -5.000000 -6.000009 50.000000
v -5.000000 8.999991 50.000000
v 5.000000 8.999991 50.000000
v 5.000000 -6.000009 50.000000
v 20.000000 8.999991 50.000000
v 20.000000 -6.000009 50.000000
v -20.000000 -6.000009 50.000000
v -20.000000 8.999991 50.000000
v -10.000000 -1.000010 55.000000
v -10.000000 3.999990 55.000000
v 10.000000 3.999990 55.000000
v 10.000000 -1.000010 55.000000
v 15.000000 3.999990 55.000000
v 15.000000 -1.000010 55.000000
v -15.000000 -1.000010 55.000000
v -15.000000 3.999990 55.000000
v -7.500000 -3.500010 55.000000
v -7.500000 6.499990 55.000000
v 7.500000 6.499990 55.000000
v 7.500000 -3.500010 55.000000
v 17.500000 6.499990 55.000000
v 17.500000 -3.500010 55.000000
v -17.500000 -3.500010 55.000000
v -17.500000 6.499990 55.000000
v -10.000000 -1.000009 50.000000
v -10.000000 3.999991 50.000000
v 10.000000 3.999991 50.000000
v 10.000000 -1.000009 50.000000
v 15.000000 3.999991 50.000000
v 15.000000 -1.000009 50.000000
v -15.000000 -1.000009 50.000000
v -15.000000 3.999991 50.000000
v 5.000000 13.999996 22.000002
v -5.000000 13.999996 22.000002
v 5.000000 23.999996 22.000004
v -5.000000 23.999996 22.000004
v -10.000000 1.000009 -50.000000
v -10.000000 1.000009 -50.000000
v -20.000000 6.000002 -9.999999
v 25.000000 -6.000002 9.999999
v 25.000000 -6.000004 24.999998
v 20.000000 6.000002 -9.999999
v 25.000000 8.999998 10.000002
v 20.000000 -3.999998 -10.000001
v -20.000000 -3.999998 -10.000001
v -25.000000 -6.000002 9.999999
v -25.000000 8.999998 10.000002
v 5.000000 -0.999991 -50.000000
v -5.000000 -0.999991 -50.000000
v -5.000000 1.000009 -50.000000
v 5.000000 1.000009 -50.000000
v 10.000000 1.000009 -50.000000
v 10.000000 1.000009 -50.000000
v 10.000000 -0.999991 -50.000000
v 10.000000 -0.999991 -50.000000
v -10.000000 -0.999991 -50.000000
v -10.000000 -0.999991 -50.000000
v 7.000000 1.000010 -60.000000
v 5.000000 1.000010 -60.000000
v 7.000000 -0.999990 -60.000000
v 5.000000 -0.999990 -60.000000
v -5.000000 -0.999990 -60.000000
v -7.000000 -0.999990 -60.000000
v -7.000000 1.000010 -60.000000
v -5.000000 1.000010 -60.000000
v 5.000000 9.999994 35.000000
v 5.000000 9.999995 25.000002
v -5.000000 9.999995 25.000002
v -5.000000 9.999994 35.000000
v -5.000000 9.999994 35.000000
v -25.000000 -6.000004 24.999998
v 25.000000 8.999995 25.000002
v -25.000000 8.999995 25.000002
v -25.000000 8.999994 35.000000
v -20.000000 8.999991 50.000000
v -20.000000 8.999991 50.000000
v -20.000000 8.999991 50.000000
v -25.000000 -6.000006 35.000000
v 25.000000 8.999994 35.000000
v 25.000000 -6.000006 35.000000
v 5.000000 8.999991 50.000000
v -5.000000 8.999991 50.000000
v -5.000000 -6.000009 50.000000
v 5.000000 -6.000009 50.000000
v 20.000000 8.999991 50.000000
v 20.000000 8.999991 50.000000
v 20.000000 8.999991 50.000000
v 20.000000 -6.000009 50.000000
v 20.000000 -6.000009 50.000000
v -20.000000 -6.000009 50.000000
v -20.000000 -6.000009 50.000000
v 5.000000 13.999994 35.000004
v -5.000000 13.999994 35.000004
v -5.000000 13.999994 35.000004
v 5.000000 23.999994 35.000004
v -5.000000 23.999994 35.000004
v 20.000000 13.999995 25.000002
v 5.000000 13.999996 22.000002
v -20.000000 13.999995 25.000002
v -5.000000 13.999996 22.000002
v -20.000000 13.999994 35.000004
v -20.000000 13.999994 35.000004
v -20.000000 23.999996 25.000004
v -20.000000 23.999994 35.000004
v -20.000000 23.999994 35.000004
v 20.000000 13.999994 35.000004
v 20.000000 23.999994 35.000004
v 20.000000 23.999996 25.000004
v 7.500000 6.499991 50.000000
v 7.500000 -3.500009 50.000000
v 17.500000 6.499991 50.000000
v 17.500000 6.499991 50.000000
v 17.500000 6.499991 50.000000
v 17.500000 -3.500009 50.000000
v -17.500000 6.499991 50.000000
v -17.500000 6.499991 50.000000
v -17.500000 6.499991 50.000000
v -7.500000 -3.500010 55.000000
v -7.500000 6.499990 55.000000
v 7.500000 6.499990 55.000000
v 7.500000 -3.500010 55.000000
v 17.500000 6.499990 55.000000
v 17.500000 6.499990 55.000000
v 17.500000 6.499990 55.000000
v 17.500000 -3.500010 55.000000
v -17.500000 -3.500010 55.000000
v -17.500000 6.499990 55.000000
v -17.500000 6.499990 55.000000
v -17.500000 6.499990 55.000000
v -10.000000 -1.000010 55.000000
v -10.000000 3.999990 55.000000
v 10.000000 3.999990 55.000000
v 10.000000 -1.000010 55.000000
v 15.000000 3.999990 55.000000
v 15.000000 3.999990 55.000000
v 15.000000 3.999990 55.000000
v 15.000000 -1.000010 55.000000
v -15.000000 -1.000010 55.000000
v -15.000000 3.999990 55.000000
v -15.000000 3.999990 55.000000
v -15.000000 3.999990 55.000000
v -10.000000 -1.000009 50.000000
v -10.000000 3.999991 50.000000
v 10.000000 -1.000009 50.000000
v 15.000000 3.999991 50.000000
v 15.000000 -1.000009 50.000000
v -15.000000 -1.000009 50.000000
v -15.000000 3.999991 50.000000
v -15.000000 3.999991 50.000000
v 5.000000 23.999996 22.000004
v -5.000000 23.999996 22.000004
vt 0.375989 0.187383
vt 0.249871 0.125019
vt 0.375988 0.125026
vt 0.156355 0.000316
vt 0.249875 0.000314
vt 0.877105 0.385673
vt 0.845935 0.642713
vt 0.814764 0.385673
vt 0.124951 0.687324
vt 0.187292 0.562020
vt 0.187292 0.687324
vt 0.375989 0.031493
vt 0.124951 0.937390
vt 0.889574 0.257153
vt 0.311975 0.468508
vt 0.311975 0.562020
vt 0.627355 0.218561
vt 0.375988 0.280918
vt 0.124951 0.562020
vt 0.031439 0.687324
vt 0.000268 0.562020
vt 0.890110 0.257153
vt 0.964920 0.385673
vt 0.902578 0.385673
vt 0.124951 0.468508
vt 0.280804 0.687324
vt 0.249878 0.187382
vt 0.249867 0.312096
vt 0.187292 0.937390
vt 0.199761 0.999732
vt 0.187292 0.999732
vt 0.884546 0.658263
vt 0.897014 0.595922
vt 0.897014 0.658263
vt 0.884546 0.595922
vt 0.897014 0.533581
vt 0.627355 0.187383
vt 0.093780 0.937390
vt 0.627355 0.093849
vt 0.627355 0.125027
vt 0.218463 0.937390
vt 0.933749 0.642713
vt 0.921281 0.642713
vt 0.897014 0.720605
vt 0.884546 0.733073
vt 0.884546 0.720605
vt 0.884546 0.533581
vt 0.897014 0.521112
vt 0.112483 0.999732
vt 0.897014 0.456026
vt 0.884546 0.521112
vt 0.884546 0.456026
vt 0.689711 0.199855
vt 0.884546 0.798159
vt 0.897014 0.733073
vt 0.897014 0.798159
vt 0.689711 0.112556
vt 0.689711 0.125027
vt 0.890110 0.163641
vt 0.983622 0.101299
vt 0.983622 0.163641
vt 0.187292 0.468508
vt 0.311975 0.406166
vt 0.763066 0.470149
vt 0.738130 0.407808
vt 0.763066 0.407808
vt 0.983622 0.257153
vt 0.156217 0.125077
vt 0.156331 0.312087
vt 0.156203 0.187320
vt 0.796062 0.257153
vt 0.889574 0.163641
vt 0.796062 0.101299
vt 0.889574 0.002729
vt 0.889574 0.101299
vt 0.124951 0.406166
vt 0.031439 0.312655
vt 0.124951 0.312655
vt 0.093944 0.187344
vt 0.000400 0.280947
vt 0.000280 0.187397
vt 0.093977 0.000268
vt 0.187292 0.406166
vt 0.000268 0.468508
vt 0.796062 0.163641
vt 0.596860 0.779797
vt 0.690372 0.717456
vt 0.690372 0.779797
vt 0.656973 0.911986
vt 0.594632 0.943157
vt 0.594632 0.911986
vt 0.532291 0.943157
vt 0.532291 0.911986
vt 0.000268 0.125030
vt 0.093952 0.125073
vt 0.280804 0.312655
vt 0.890110 0.101299
vt 0.983622 0.002729
vt 0.000382 0.031453
vt 0.187292 0.312655
vt 0.404711 0.478099
vt 0.342370 0.415758
vt 0.404711 0.415758
vt 0.738130 0.345466
vt 0.763066 0.345466
vt 0.738130 0.283125
vt 0.763066 0.283125
vt 0.763066 0.532490
vt 0.738130 0.470149
vt 0.585917 0.454974
vt 0.523575 0.392632
vt 0.585917 0.392632
vt 0.523575 0.548486
vt 0.523575 0.454974
vt 0.693335 0.386480
vt 0.712038 0.448822
vt 0.693335 0.448822
vt 0.342370 0.571611
vt 0.342370 0.478099
vt 0.404712 0.949363
vt 0.342370 0.887021
vt 0.404712 0.887021
vt 0.342370 0.729316
vt 0.404712 0.633952
vt 0.404712 0.729316
vt 0.630994 0.386480
vt 0.693335 0.292968
vt 0.404712 0.322246
vt 0.404712 0.571611
vt 0.585917 0.299120
vt 0.712038 0.386480
vt 0.630994 0.542334
vt 0.630994 0.448822
vt 0.674787 0.701870
vt 0.596860 0.717456
vt 0.612445 0.701870
vt 0.612445 0.795382
vt 0.674787 0.795382
vt 0.674787 0.857724
vt 0.596860 0.873309
vt 0.612446 0.857724
vt 0.612445 0.857724
vt 0.690372 0.873309
vt 0.612445 0.639529
vt 0.690372 0.623944
vt 0.674787 0.639529
vt 0.596860 0.623944
vt 0.612445 0.639529
vt 0.968021 0.790755
vt 0.936851 0.759584
vt 0.968021 0.759584
vt 0.936851 0.728414
vt 0.968021 0.728414
vt 0.781656 0.911986
vt 0.719315 0.943157
vt 0.719315 0.911986
vt 0.719315 0.911986
vt 0.656973 0.943157
vt 0.781656 0.911986
vt 0.719315 0.943157
vt 0.656973 0.943157
vt 0.656973 0.911986
vt 0.594632 0.943157
vt 0.594632 0.911986
vt 0.532291 0.943157
vt 0.532291 0.911986
vt 0.957098 0.915056
vt 0.910342 0.899470
vt 0.972684 0.899470
vt 0.925927 0.915056
vt 0.972683 0.899471
vt 0.957098 0.915056
vt 0.925927 0.946227
vt 0.972683 0.961812
vt 0.910342 0.961812
vt 0.925927 0.946227
vt 0.910342 0.899471
vt 0.957098 0.946227
vt 0.957098 0.946226
vt 0.910342 0.961812
vt 0.925928 0.946226
vt 0.972684 0.961811
vt 0.957098 0.946226
vt 0.925928 0.915056
vt 0.957098 0.946226
vt 0.925928 0.915055
vt 0.957098 0.915055
vt 0.925928 0.915056
vt 0.957098 0.946226
vt 0.925928 0.946226
vt 0.968021 0.759584
vt 0.936851 0.728414
vt 0.968021 0.728414
vt 0.936851 0.697243
vt 0.968021 0.697243
vt 0.936851 0.666072
vt 0.968021 0.666072
vt 0.968021 0.697243
vt 0.936851 0.666072
vt 0.968021 0.666072
vt 0.936851 0.697243
vt 0.968021 0.790755
vt 0.936851 0.759584
vt 0.404712 0.791657
vt 0.585917 0.548486
vt 0.604619 0.454974
vt 0.342370 0.791657
vt 0.604619 0.392632
vt 0.693335 0.542334
vt 0.858403 0.642713
vt 0.124951 0.999732
vt 0.689711 0.187383
vt 0.796062 0.002729
vt 0.000268 0.406166
vt 0.093969 0.312118
vt 0.890110 0.002729
vt 0.738130 0.532490
vt 0.342370 0.949363
vt 0.342370 0.633952
vt 0.630994 0.292968
vt 0.342370 0.322246
vt 0.523575 0.299120
vt 0.596860 0.873309
vt 0.596860 0.623944
vt 0.936851 0.790755
vt 0.781656 0.943157
vt 0.781656 0.943157
vt 0.910342 0.961812
vt 0.972684 0.961812
vt 0.925928 0.946226
vt 0.957098 0.915056
vt 0.936851 0.790755
vn 0.0000 0.9889 -0.1483
vn 0.0000 1.0000 0.0000
vn 0.9701 0.0000 -0.2425
vn 0.0000 -0.9950 -0.0995
vn 0.0000 -0.9972 -0.0748
vn 0.0000 -1.0000 -0.0000
vn 0.0000 0.9923 -0.1240
vn -0.9701 -0.0000 -0.2425
vn 0.0000 0.0000 -1.0000
vn -1.0000 0.0000 0.0000
vn 0.9578 0.0000 -0.2873
vn 1.0000 0.0000 0.0000
vn -0.9578 0.0000 -0.2873
vn 0.0000 0.9978 -0.0665
vn -0.0498 0.9965 -0.0664
vn 0.9487 0.0000 0.3162
vn 0.0000 0.9978 0.0665
vn 0.0499 0.9988 0.0000
vn -0.0499 0.9988 0.0000
vn 0.0000 0.0000 1.0000
vn -0.9487 0.0000 0.3162
vn 0.0499 0.9986 0.0166
vn 0.1961 0.0000 -0.9806
vn -0.1961 0.0000 -0.9806
vn 0.0498 0.9965 -0.0664
vn -0.0499 0.9986 0.0166
usemtl ShipMaterial
s off
f 5/1/1 3/2/1 1/3/1
f 3/2/2 37/4/2 11/5/2
f 116/6/3 21/7/3 114/8/3
f 2/9/4 8/10/4 6/11/4
f 3/2/1 9/12/1 1/3/1
f 6/11/5 17/13/5 2/9/5
f 114/8/3 112/14/3 116/6/3
f 8/10/6 39/15/6 14/16/6
f 5/1/7 109/17/7 111/18/7
f 4/19/4 10/20/4 12/21/4
f 118/22/8 16/23/8 117/24/8
f 12/21/6 36/25/6 4/19/6
f 8/10/4 13/26/4 6/11/4
f 7/27/1 111/18/1 15/28/1
f 18/29/6 32/30/6 28/31/6
f 20/32/9 120/33/9 121/34/9
f 123/35/10 133/36/10 120/33/10
f 1/3/7 122/37/7 5/1/7
f 2/9/5 127/38/5 10/20/5
f 1/3/7 125/39/7 19/40/7
f 6/11/5 129/41/5 18/29/5
f 117/24/8 110/42/8 128/43/8
f 134/44/9 136/45/9 137/46/9
f 131/47/9 132/48/9 133/36/9
f 17/13/6 30/49/6 127/38/6
f 126/50/11 130/51/11 124/52/11
f 121/34/12 137/46/12 20/32/12
f 122/37/2 31/53/2 109/17/2
f 23/54/13 135/55/13 24/56/13
f 19/40/2 29/57/2 25/58/2
f 143/59/10 146/60/10 145/61/10
f 33/62/6 47/63/6 39/15/6
f 34/64/9 58/65/9 139/66/9
f 118/22/10 145/61/10 119/67/10
f 4/19/6 33/62/6 8/10/6
f 7/27/14 35/68/14 3/2/14
f 7/27/15 40/69/15 140/70/15
f 115/71/12 113/72/12 112/14/12
f 151/73/16 160/74/16 152/75/16
f 44/76/6 161/77/6 76/78/6
f 141/79/17 148/80/17 154/81/17
f 35/68/18 45/82/18 37/4/18
f 36/25/6 41/83/6 33/62/6
f 40/69/19 141/79/19 140/70/19
f 38/84/6 44/76/6 36/25/6
f 144/85/12 152/75/12 113/72/12
f 153/86/20 155/87/20 156/88/20
f 182/89/10 192/90/10 181/91/10
f 181/91/2 195/92/2 184/93/2
f 141/79/17 75/94/17 43/95/17
f 41/83/6 163/96/6 47/63/6
f 150/97/21 147/98/21 146/60/21
f 43/95/22 158/99/22 45/82/22
f 44/76/6 73/100/6 41/83/6
f 57/101/20 64/102/20 166/103/20
f 139/66/12 164/104/12 138/105/12
f 138/105/20 60/106/20 142/107/20
f 42/108/10 59/109/10 34/64/10
f 63/110/2 167/111/2 62/112/2
f 63/110/2 176/113/2 168/114/2
f 59/115/6 105/116/6 58/117/6
f 57/101/20 179/118/20 61/119/20
f 173/120/10 67/121/10 65/122/10
f 222/123/23 169/124/23 170/125/23
f 165/126/6 171/127/6 59/115/6
f 64/102/20 174/128/20 166/103/20
f 169/124/12 179/118/12 178/129/12
f 167/111/2 72/130/2 62/112/2
f 171/127/6 172/131/6 59/115/6
f 58/117/6 69/132/6 164/133/6
f 49/134/20 74/135/20 50/136/20
f 51/137/20 156/88/20 52/138/20
f 186/139/20 159/140/20 183/141/20
f 185/142/20 153/86/20 51/137/20
f 52/138/20 78/143/20 186/139/20
f 187/144/20 79/145/20 55/146/20
f 50/136/20 149/147/20 188/148/20
f 55/146/20 155/87/20 49/134/20
f 206/149/10 218/150/10 209/151/10
f 209/151/2 100/152/2 84/153/2
f 56/154/2 90/155/2 50/156/2
f 54/157/6 193/158/6 182/89/6
f 53/159/12 94/160/12 54/157/12
f 50/156/12 89/161/12 49/162/12
f 49/162/6 198/163/6 55/164/6
f 55/164/10 199/165/10 189/166/10
f 82/167/20 190/168/20 191/169/20
f 204/170/20 92/171/20 205/172/20
f 208/173/20 197/174/20 194/175/20
f 207/176/20 91/177/20 204/170/20
f 86/178/20 92/171/20 197/174/20
f 211/179/20 95/180/20 210/181/20
f 82/167/20 201/182/20 212/183/20
f 81/184/20 95/180/20 190/168/20
f 216/185/20 101/186/20 99/187/20
f 215/188/20 219/189/20 214/190/20
f 203/191/10 97/192/10 202/193/10
f 202/193/2 103/194/2 87/195/2
f 87/195/12 221/196/12 213/197/12
f 83/198/6 101/199/6 85/200/6
f 84/153/12 99/201/12 83/198/12
f 88/202/6 98/203/6 203/191/6
f 106/204/9 222/123/9 170/125/9
f 175/205/2 63/110/2 108/206/2
f 62/112/2 108/206/2 63/110/2
f 65/122/24 223/207/24 106/204/24
f 62/112/2 72/130/2 107/208/2
f 105/116/6 70/209/6 58/117/6
f 5/1/1 7/27/1 3/2/1
f 3/2/25 35/68/25 37/4/25
f 116/6/3 22/210/3 21/7/3
f 2/9/4 4/19/4 8/10/4
f 3/2/1 11/5/1 9/12/1
f 6/11/5 18/29/5 17/13/5
f 114/8/3 115/71/3 112/14/3
f 8/10/6 33/62/6 39/15/6
f 5/1/7 122/37/7 109/17/7
f 4/19/4 2/9/4 10/20/4
f 118/22/8 119/67/8 16/23/8
f 12/21/6 38/84/6 36/25/6
f 8/10/4 14/16/4 13/26/4
f 7/27/1 5/1/1 111/18/1
f 18/29/6 129/41/6 32/30/6
f 20/32/9 123/35/9 120/33/9
f 123/35/10 131/47/10 133/36/10
f 1/3/7 19/40/7 122/37/7
f 2/9/5 17/13/5 127/38/5
f 1/3/7 9/12/7 125/39/7
f 6/11/5 13/26/5 129/41/5
f 117/24/8 16/23/8 110/42/8
f 134/44/9 135/55/9 136/45/9
f 131/47/9 130/51/9 132/48/9
f 17/13/6 26/211/6 30/49/6
f 126/50/11 132/48/11 130/51/11
f 121/34/12 134/44/12 137/46/12
f 122/37/2 27/212/2 31/53/2
f 23/54/13 136/45/13 135/55/13
f 19/40/2 125/39/2 29/57/2
f 143/59/10 150/97/10 146/60/10
f 33/62/6 41/83/6 47/63/6
f 34/64/9 59/109/9 58/65/9
f 118/22/10 143/59/10 145/61/10
f 4/19/6 36/25/6 33/62/6
f 7/27/14 140/70/14 35/68/14
f 7/27/2 15/28/2 40/69/2
f 115/71/12 144/85/12 113/72/12
f 151/73/16 157/213/16 160/74/16
f 44/76/6 46/214/6 161/77/6
f 141/79/26 48/215/26 148/80/26
f 35/68/18 43/95/18 45/82/18
f 36/25/6 44/76/6 41/83/6
f 40/69/19 48/215/19 141/79/19
f 38/84/6 46/214/6 44/76/6
f 144/85/12 151/73/12 152/75/12
f 153/86/20 74/135/20 155/87/20
f 182/89/10 193/158/10 192/90/10
f 181/91/2 192/90/2 195/92/2
f 141/79/17 154/81/17 75/94/17
f 41/83/6 73/100/6 163/96/6
f 150/97/21 162/216/21 147/98/21
f 43/95/17 75/94/17 158/99/17
f 44/76/6 76/78/6 73/100/6
f 57/101/20 61/119/20 64/102/20
f 139/66/12 58/65/12 164/104/12
f 138/105/20 164/104/20 60/106/20
f 42/108/10 165/217/10 59/109/10
f 63/110/2 168/114/2 167/111/2
f 63/110/2 175/205/2 176/113/2
f 59/115/6 172/131/6 105/116/6
f 57/101/20 178/129/20 179/118/20
f 173/120/10 177/218/10 67/121/10
f 222/123/23 180/219/23 169/124/23
f 165/126/6 66/220/6 171/127/6
f 64/102/20 68/221/20 174/128/20
f 169/124/12 180/219/12 179/118/12
f 167/111/2 71/222/2 72/130/2
f 58/117/6 70/209/6 69/132/6
f 49/134/20 155/87/20 74/135/20
f 51/137/20 153/86/20 156/88/20
f 186/139/20 78/143/20 159/140/20
f 185/142/20 77/223/20 153/86/20
f 52/138/20 156/88/20 78/143/20
f 187/144/20 80/224/20 79/145/20
f 50/136/20 74/135/20 149/147/20
f 55/146/20 79/145/20 155/87/20
f 206/149/10 217/225/10 218/150/10
f 209/151/2 218/150/2 100/152/2
f 56/154/2 200/226/2 90/155/2
f 54/157/6 94/160/6 193/158/6
f 53/159/12 196/227/12 94/160/12
f 50/156/12 90/155/12 89/161/12
f 49/162/6 89/161/6 198/163/6
f 55/164/10 198/163/10 199/165/10
f 82/167/20 81/184/20 190/168/20
f 204/170/20 91/177/20 92/171/20
f 208/173/20 86/178/20 197/174/20
f 207/176/20 93/228/20 91/177/20
f 86/178/20 205/172/20 92/171/20
f 211/179/20 96/229/20 95/180/20
f 82/167/20 191/169/20 201/182/20
f 81/184/20 210/181/20 95/180/20
f 216/185/20 102/230/20 101/186/20
f 215/188/20 220/231/20 219/189/20
f 203/191/10 98/203/10 97/192/10
f 202/193/2 97/192/2 103/194/2
f 87/195/12 103/194/12 221/196/12
f 83/198/6 99/201/6 101/199/6
f 84/153/12 100/152/12 99/201/12
f 88/202/6 104/232/6 98/203/6
f 106/204/9 223/207/9 222/123/9
f 62/112/2 107/208/2 108/206/2
f 65/122/24 67/121/24 223/207/24
