# Blender v2.83.3 OBJ File: ''
# www.blender.org
mtllib targetcylinder.mtl
o Cylinder
v 0.000000 0.200000 0.000000
v 0.000000 0.200000 50.000000
v 0.039018 0.196157 0.000000
v 0.039018 0.196157 50.000000
v 0.076537 0.184776 0.000000
v 0.076537 0.184776 50.000000
v 0.111114 0.166294 0.000000
v 0.111114 0.166294 50.000000
v 0.141421 0.141422 0.000000
v 0.141421 0.141422 50.000000
v 0.166294 0.111114 0.000000
v 0.166294 0.111114 50.000000
v 0.184776 0.076537 0.000000
v 0.184776 0.076537 50.000000
v 0.196157 0.039018 0.000000
v 0.196157 0.039018 50.000000
v 0.200000 0.000000 0.000000
v 0.200000 0.000000 50.000000
v 0.196157 -0.039018 0.000000
v 0.196157 -0.039018 50.000000
v 0.184776 -0.076536 0.000000
v 0.184776 -0.076536 50.000000
v 0.166294 -0.111114 0.000000
v 0.166294 -0.111114 50.000000
v 0.141421 -0.141421 0.000000
v 0.141421 -0.141421 50.000000
v 0.111114 -0.166294 0.000000
v 0.111114 -0.166294 50.000000
v 0.076537 -0.184776 0.000000
v 0.076537 -0.184776 50.000000
v 0.039018 -0.196157 0.000000
v 0.039018 -0.196157 50.000000
v -0.000000 -0.200000 0.000000
v -0.000000 -0.200000 50.000000
v -0.039018 -0.196157 0.000000
v -0.039018 -0.196157 50.000000
v -0.076537 -0.184776 0.000000
v -0.076537 -0.184776 50.000000
v -0.111114 -0.166294 0.000000
v -0.111114 -0.166294 50.000000
v -0.141421 -0.141421 0.000000
v -0.141421 -0.141421 50.000000
v -0.166294 -0.111114 0.000000
v -0.166294 -0.111114 50.000000
v -0.184776 -0.076536 0.000000
v -0.184776 -0.076536 50.000000
v -0.196157 -0.039018 0.000000
v -0.196157 -0.039018 50.000000
v -0.200000 0.000000 0.000000
v -0.200000 0.000000 50.000000
v -0.196157 0.039019 0.000000
v -0.196157 0.039019 50.000000
v -0.184776 0.076537 0.000000
v -0.184776 0.076537 50.000000
v -0.166294 0.111115 0.000000
v -0.166294 0.111115 50.000000
v -0.141421 0.141422 0.000000
v -0.141421 0.141422 50.000000
v -0.111114 0.166294 0.000000
v -0.111114 0.166294 50.000000
v -0.076536 0.184776 0.000000
v -0.076536 0.184776 50.000000
v -0.039018 0.196157 0.000000
v -0.039018 0.196157 50.000000
vt 1.000000 1.000000
vt 0.968750 0.500000
vt 1.000000 0.500000
vt 0.968750 1.000000
vt 0.937500 0.500000
vt 0.937500 1.000000
vt 0.906250 0.500000
vt 0.906250 1.000000
vt 0.875000 0.500000
vt 0.875000 1.000000
vt 0.843750 0.500000
vt 0.843750 1.000000
vt 0.812500 0.500000
vt 0.812500 1.000000
vt 0.781250 0.500000
vt 0.781250 1.000000
vt 0.750000 0.500000
vt 0.750000 1.000000
vt 0.718750 0.500000
vt 0.718750 1.000000
vt 0.687500 0.500000
vt 0.687500 1.000000
vt 0.656250 0.500000
vt 0.656250 1.000000
vt 0.625000 0.500000
vt 0.625000 1.000000
vt 0.593750 0.500000
vt 0.593750 1.000000
vt 0.562500 0.500000
vt 0.531250 1.000000
vt 0.531250 0.500000
vt 0.500000 0.500000
vt 0.500000 1.000000
vt 0.468750 0.500000
vt 0.468750 1.000000
vt 0.437500 0.500000
vt 0.437500 1.000000
vt 0.406250 0.500000
vt 0.406250 1.000000
vt 0.375000 0.500000
vt 0.375000 1.000000
vt 0.343750 0.500000
vt 0.343750 1.000000
vt 0.312500 0.500000
vt 0.312500 1.000000
vt 0.281250 0.500000
vt 0.281250 1.000000
vt 0.250000 0.500000
vt 0.250000 1.000000
vt 0.218750 0.500000
vt 0.218750 1.000000
vt 0.187500 0.500000
vt 0.187500 1.000000
vt 0.156250 0.500000
vt 0.156250 1.000000
vt 0.125000 0.500000
vt 0.125000 1.000000
vt 0.093750 0.500000
vt 0.062500 1.000000
vt 0.062500 0.500000
vt 0.158156 0.028269
vt 0.471731 0.158156
vt 0.341844 0.471731
vt 0.031250 0.500000
vt 0.031250 1.000000
vt 0.000000 0.500000
vt 0.796822 0.014612
vt 0.514611 0.203179
vt 0.703179 0.485389
vt 0.562500 1.000000
vt 0.093750 1.000000
vt 0.296822 0.485388
vt 0.250000 0.490000
vt 0.203179 0.485389
vt 0.158156 0.471731
vt 0.116663 0.449553
vt 0.028269 0.341844
vt 0.080295 0.419706
vt 0.050447 0.383337
vt 0.014612 0.296822
vt 0.010000 0.250000
vt 0.014611 0.203179
vt 0.028269 0.158156
vt 0.050447 0.116663
vt 0.080294 0.080294
vt 0.116663 0.050447
vt 0.203178 0.014612
vt 0.250000 0.010000
vt 0.296822 0.014612
vt 0.341844 0.028269
vt 0.383337 0.050447
vt 0.419706 0.080294
vt 0.449553 0.116663
vt 0.485388 0.203178
vt 0.490000 0.250000
vt 0.485388 0.296822
vt 0.471731 0.341844
vt 0.449553 0.383337
vt 0.419706 0.419706
vt 0.383337 0.449553
vt 0.000000 1.000000
vt 0.750000 0.490000
vt 0.883337 0.449553
vt 0.796822 0.485388
vt 0.841844 0.471731
vt 0.919706 0.419706
vt 0.949553 0.383337
vt 0.971731 0.341844
vt 0.985388 0.296822
vt 0.990000 0.250000
vt 0.985388 0.203178
vt 0.971731 0.158156
vt 0.949553 0.116663
vt 0.919706 0.080294
vt 0.883337 0.050447
vt 0.841844 0.028269
vt 0.750000 0.010000
vt 0.703178 0.014612
vt 0.658156 0.028269
vt 0.616663 0.050447
vt 0.580294 0.080294
vt 0.550447 0.116663
vt 0.528269 0.158156
vt 0.510000 0.250000
vt 0.550447 0.383337
vt 0.514612 0.296822
vt 0.528269 0.341844
vt 0.580295 0.419706
vt 0.616663 0.449553
vt 0.658156 0.471731
vn 0.0980 0.9952 0.0000
vn 0.2903 0.9569 0.0000
vn 0.4714 0.8819 0.0000
vn 0.6344 0.7730 0.0000
vn 0.7730 0.6344 0.0000
vn 0.8819 0.4714 0.0000
vn 0.9569 0.2903 0.0000
vn 0.9952 0.0980 0.0000
vn 0.9952 -0.0980 -0.0000
vn 0.9569 -0.2903 -0.0000
vn 0.8819 -0.4714 -0.0000
vn 0.7730 -0.6344 -0.0000
vn 0.6344 -0.7730 0.0000
vn 0.4714 -0.8819 0.0000
vn 0.2903 -0.9569 0.0000
vn 0.0980 -0.9952 0.0000
vn -0.0980 -0.9952 0.0000
vn -0.2903 -0.9569 0.0000
vn -0.4714 -0.8819 0.0000
vn -0.6344 -0.7730 0.0000
vn -0.7730 -0.6344 -0.0000
vn -0.8819 -0.4714 -0.0000
vn -0.9569 -0.2903 -0.0000
vn -0.9952 -0.0980 -0.0000
vn -0.9952 0.0980 0.0000
vn -0.9569 0.2903 0.0000
vn -0.8819 0.4714 0.0000
vn -0.7730 0.6344 0.0000
vn -0.6344 0.7730 0.0000
vn -0.4714 0.8819 0.0000
vn 0.0000 0.0000 1.0000
vn -0.2903 0.9569 0.0000
vn -0.0980 0.9952 0.0000
vn -0.0000 0.0000 -1.0000
vn -0.0005 0.0000 1.0000
vn 0.0008 0.0000 1.0000
vn 0.0024 0.0000 1.0000
vn -0.0008 0.0000 1.0000
vn 0.0001 0.0000 1.0000
vn -0.0001 0.0000 1.0000
vn -0.0002 0.0000 1.0000
usemtl None
s off
f 2/1/1 3/2/1 1/3/1
f 4/4/2 5/5/2 3/2/2
f 6/6/3 7/7/3 5/5/3
f 8/8/4 9/9/4 7/7/4
f 10/10/5 11/11/5 9/9/5
f 12/12/6 13/13/6 11/11/6
f 14/14/7 15/15/7 13/13/7
f 16/16/8 17/17/8 15/15/8
f 18/18/9 19/19/9 17/17/9
f 20/20/10 21/21/10 19/19/10
f 22/22/11 23/23/11 21/21/11
f 24/24/12 25/25/12 23/23/12
f 26/26/13 27/27/13 25/25/13
f 28/28/14 29/29/14 27/27/14
f 29/29/15 32/30/15 31/31/15
f 32/30/16 33/32/16 31/31/16
f 34/33/17 35/34/17 33/32/17
f 36/35/18 37/36/18 35/34/18
f 38/37/19 39/38/19 37/36/19
f 40/39/20 41/40/20 39/38/20
f 42/41/21 43/42/21 41/40/21
f 44/43/22 45/44/22 43/42/22
f 46/45/23 47/46/23 45/44/23
f 48/47/24 49/48/24 47/46/24
f 50/49/25 51/50/25 49/48/25
f 52/51/26 53/52/26 51/50/26
f 54/53/27 55/54/27 53/52/27
f 56/55/28 57/56/28 55/54/28
f 58/57/29 59/58/29 57/56/29
f 59/58/30 62/59/30 61/60/30
f 38/61/31 22/62/31 6/63/31
f 62/59/32 63/64/32 61/60/32
f 64/65/33 1/66/33 63/64/33
f 31/67/34 47/68/34 63/69/34
f 2/1/1 4/4/1 3/2/1
f 4/4/2 6/6/2 5/5/2
f 6/6/3 8/8/3 7/7/3
f 8/8/4 10/10/4 9/9/4
f 10/10/5 12/12/5 11/11/5
f 12/12/6 14/14/6 13/13/6
f 14/14/7 16/16/7 15/15/7
f 16/16/8 18/18/8 17/17/8
f 18/18/9 20/20/9 19/19/9
f 20/20/10 22/22/10 21/21/10
f 22/22/11 24/24/11 23/23/11
f 24/24/12 26/26/12 25/25/12
f 26/26/13 28/28/13 27/27/13
f 28/28/14 30/70/14 29/29/14
f 29/29/15 30/70/15 32/30/15
f 32/30/16 34/33/16 33/32/16
f 34/33/17 36/35/17 35/34/17
f 36/35/18 38/37/18 37/36/18
f 38/37/19 40/39/19 39/38/19
f 40/39/20 42/41/20 41/40/20
f 42/41/21 44/43/21 43/42/21
f 44/43/22 46/45/22 45/44/22
f 46/45/23 48/47/23 47/46/23
f 48/47/24 50/49/24 49/48/24
f 50/49/25 52/51/25 51/50/25
f 52/51/26 54/53/26 53/52/26
f 54/53/27 56/55/27 55/54/27
f 56/55/28 58/57/28 57/56/28
f 58/57/29 60/71/29 59/58/29
f 59/58/30 60/71/30 62/59/30
f 6/63/31 4/72/31 2/73/31
f 2/73/31 64/74/31 62/75/31
f 62/75/31 60/76/31 54/77/31
f 60/76/35 58/78/35 54/77/35
f 58/78/36 56/79/36 54/77/36
f 54/77/31 52/80/31 50/81/31
f 50/81/37 48/82/37 46/83/37
f 46/83/31 44/84/31 42/85/31
f 42/85/36 40/86/36 38/61/36
f 38/61/31 36/87/31 34/88/31
f 34/88/31 32/89/31 38/61/31
f 32/89/31 30/90/31 38/61/31
f 30/90/38 28/91/38 26/92/38
f 26/92/36 24/93/36 22/62/36
f 22/62/37 20/94/37 18/95/37
f 18/95/31 16/96/31 22/62/31
f 16/96/35 14/97/35 22/62/35
f 14/97/36 12/98/36 10/99/36
f 10/99/38 8/100/38 6/63/38
f 6/63/31 2/73/31 54/77/31
f 2/73/39 62/75/39 54/77/39
f 54/77/31 50/81/31 38/61/31
f 50/81/40 46/83/40 38/61/40
f 46/83/41 42/85/41 38/61/41
f 30/90/31 26/92/31 38/61/31
f 26/92/31 22/62/31 38/61/31
f 14/97/31 10/99/31 22/62/31
f 10/99/31 6/63/31 22/62/31
f 6/63/31 54/77/31 38/61/31
f 62/59/32 64/65/32 63/64/32
f 64/65/33 2/101/33 1/66/33
f 63/69/34 1/102/34 7/103/34
f 1/102/34 3/104/34 7/103/34
f 3/104/34 5/105/34 7/103/34
f 7/103/34 9/106/34 11/107/34
f 11/107/34 13/108/34 7/103/34
f 13/108/34 15/109/34 7/103/34
f 15/109/34 17/110/34 19/111/34
f 19/111/34 21/112/34 23/113/34
f 23/113/34 25/114/34 31/67/34
f 25/114/34 27/115/34 31/67/34
f 27/115/34 29/116/34 31/67/34
f 31/67/34 33/117/34 35/118/34
f 35/118/34 37/119/34 31/67/34
f 37/119/34 39/120/34 31/67/34
f 39/120/34 41/121/34 47/68/34
f 41/121/34 43/122/34 47/68/34
f 43/122/34 45/123/34 47/68/34
f 47/68/34 49/124/34 55/125/34
f 49/124/34 51/126/34 55/125/34
f 51/126/34 53/127/34 55/125/34
f 55/125/34 57/128/34 59/129/34
f 59/129/34 61/130/34 63/69/34
f 15/109/34 19/111/34 31/67/34
f 19/111/34 23/113/34 31/67/34
f 55/125/34 59/129/34 63/69/34
f 63/69/34 7/103/34 31/67/34
f 7/103/34 15/109/34 31/67/34
f 31/67/34 39/120/34 47/68/34
f 47/68/34 55/125/34 63/69/34
